<?xml version="1.0" encoding="utf-8"?>
<svg xmlns="http://www.w3.org/2000/svg" width="100" height="100" viewBox="0 0 100 100">
  <!-- Border -->
  <rect x="0" y="0" width="100" height="100" fill="none" stroke="#000000" stroke-width="1"/>
  
  <!-- Horizontal grid lines (triangulation) -->
  <line x1="0" y1="10" x2="100" y2="10" stroke="#FFFF00" stroke-width="0.5"/>
  <line x1="0" y1="20" x2="100" y2="20" stroke="#FFFF00" stroke-width="0.5"/>
  <line x1="0" y1="30" x2="100" y2="30" stroke="#FFFF00" stroke-width="0.5"/>
  <line x1="0" y1="40" x2="100" y2="40" stroke="#FFFF00" stroke-width="0.5"/>
  <line x1="0" y1="50" x2="100" y2="50" stroke="#FFFF00" stroke-width="0.5"/>
  <line x1="0" y1="60" x2="100" y2="60" stroke="#FFFF00" stroke-width="0.5"/>
  <line x1="0" y1="70" x2="100" y2="70" stroke="#FFFF00" stroke-width="0.5"/>
  <line x1="0" y1="80" x2="100" y2="80" stroke="#FFFF00" stroke-width="0.5"/>
  <line x1="0" y1="90" x2="100" y2="90" stroke="#FFFF00" stroke-width="0.5"/>
  
  <!-- Vertical grid lines (triangulation) -->
  <line x1="10" y1="0" x2="10" y2="100" stroke="#FFFF00" stroke-width="0.5"/>
  <line x1="20" y1="0" x2="20" y2="100" stroke="#FFFF00" stroke-width="0.5"/>
  <line x1="30" y1="0" x2="30" y2="100" stroke="#FFFF00" stroke-width="0.5"/>
  <line x1="40" y1="0" x2="40" y2="100" stroke="#FFFF00" stroke-width="0.5"/>
  <line x1="50" y1="0" x2="50" y2="100" stroke="#FFFF00" stroke-width="0.5"/>
  <line x1="60" y1="0" x2="60" y2="100" stroke="#FFFF00" stroke-width="0.5"/>
  <line x1="70" y1="0" x2="70" y2="100" stroke="#FFFF00" stroke-width="0.5"/>
  <line x1="80" y1="0" x2="80" y2="100" stroke="#FFFF00" stroke-width="0.5"/>
  <line x1="90" y1="0" x2="90" y2="100" stroke="#FFFF00" stroke-width="0.5"/>
  
  <!-- Diagonal lines to triangulate each cell -->
  <line x1="0" y1="0" x2="10" y2="10" stroke="#FFFF00" stroke-width="0.5"/>
  <line x1="10" y1="0" x2="20" y2="10" stroke="#FFFF00" stroke-width="0.5"/>
  <line x1="20" y1="0" x2="30" y2="10" stroke="#FFFF00" stroke-width="0.5"/>
  <line x1="30" y1="0" x2="40" y2="10" stroke="#FFFF00" stroke-width="0.5"/>
  <line x1="40" y1="0" x2="50" y2="10" stroke="#FFFF00" stroke-width="0.5"/>
  <line x1="50" y1="0" x2="60" y2="10" stroke="#FFFF00" stroke-width="0.5"/>
  <line x1="60" y1="0" x2="70" y2="10" stroke="#FFFF00" stroke-width="0.5"/>
  <line x1="70" y1="0" x2="80" y2="10" stroke="#FFFF00" stroke-width="0.5"/>
  <line x1="80" y1="0" x2="90" y2="10" stroke="#FFFF00" stroke-width="0.5"/>
  <line x1="90" y1="0" x2="100" y2="10" stroke="#FFFF00" stroke-width="0.5"/>
  
  <line x1="0" y1="10" x2="10" y2="20" stroke="#FFFF00" stroke-width="0.5"/>
  <line x1="10" y1="10" x2="20" y2="20" stroke="#FFFF00" stroke-width="0.5"/>
  <line x1="20" y1="10" x2="30" y2="20" stroke="#FFFF00" stroke-width="0.5"/>
  <line x1="30" y1="10" x2="40" y2="20" stroke="#FFFF00" stroke-width="0.5"/>
  <line x1="40" y1="10" x2="50" y2="20" stroke="#FFFF00" stroke-width="0.5"/>
  <line x1="50" y1="10" x2="60" y2="20" stroke="#FFFF00" stroke-width="0.5"/>
  <line x1="60" y1="10" x2="70" y2="20" stroke="#FFFF00" stroke-width="0.5"/>
  <line x1="70" y1="10" x2="80" y2="20" stroke="#FFFF00" stroke-width="0.5"/>
  <line x1="80" y1="10" x2="90" y2="20" stroke="#FFFF00" stroke-width="0.5"/>
  <line x1="90" y1="10" x2="100" y2="20" stroke="#FFFF00" stroke-width="0.5"/>
  
  <line x1="0" y1="20" x2="10" y2="30" stroke="#FFFF00" stroke-width="0.5"/>
  <line x1="10" y1="20" x2="20" y2="30" stroke="#FFFF00" stroke-width="0.5"/>
  <line x1="20" y1="20" x2="30" y2="30" stroke="#FFFF00" stroke-width="0.5"/>
  <line x1="30" y1="20" x2="40" y2="30" stroke="#FFFF00" stroke-width="0.5"/>
  <line x1="40" y1="20" x2="50" y2="30" stroke="#FFFF00" stroke-width="0.5"/>
  <line x1="50" y1="20" x2="60" y2="30" stroke="#FFFF00" stroke-width="0.5"/>
  <line x1="60" y1="20" x2="70" y2="30" stroke="#FFFF00" stroke-width="0.5"/>
  <line x1="70" y1="20" x2="80" y2="30" stroke="#FFFF00" stroke-width="0.5"/>
  <line x1="80" y1="20" x2="90" y2="30" stroke="#FFFF00" stroke-width="0.5"/>
  <line x1="90" y1="20" x2="100" y2="30" stroke="#FFFF00" stroke-width="0.5"/>
  
  <line x1="0" y1="30" x2="10" y2="40" stroke="#FFFF00" stroke-width="0.5"/>
  <line x1="10" y1="30" x2="20" y2="40" stroke="#FFFF00" stroke-width="0.5"/>
  <line x1="20" y1="30" x2="30" y2="40" stroke="#FFFF00" stroke-width="0.5"/>
  <line x1="30" y1="30" x2="40" y2="40" stroke="#FFFF00" stroke-width="0.5"/>
  <line x1="40" y1="30" x2="50" y2="40" stroke="#FFFF00" stroke-width="0.5"/>
  <line x1="50" y1="30" x2="60" y2="40" stroke="#FFFF00" stroke-width="0.5"/>
  <line x1="60" y1="30" x2="70" y2="40" stroke="#FFFF00" stroke-width="0.5"/>
  <line x1="70" y1="30" x2="80" y2="40" stroke="#FFFF00" stroke-width="0.5"/>
  <line x1="80" y1="30" x2="90" y2="40" stroke="#FFFF00" stroke-width="0.5"/>
  <line x1="90" y1="30" x2="100" y2="40" stroke="#FFFF00" stroke-width="0.5"/>
  
  <line x1="0" y1="40" x2="10" y2="50" stroke="#FFFF00" stroke-width="0.5"/>
  <line x1="10" y1="40" x2="20" y2="50" stroke="#FFFF00" stroke-width="0.5"/>
  <line x1="20" y1="40" x2="30" y2="50" stroke="#FFFF00" stroke-width="0.5"/>
  <line x1="30" y1="40" x2="40" y2="50" stroke="#FFFF00" stroke-width="0.5"/>
  <line x1="40" y1="40" x2="50" y2="50" stroke="#FFFF00" stroke-width="0.5"/>
  <line x1="50" y1="40" x2="60" y2="50" stroke="#FFFF00" stroke-width="0.5"/>
  <line x1="60" y1="40" x2="70" y2="50" stroke="#FFFF00" stroke-width="0.5"/>
  <line x1="70" y1="40" x2="80" y2="50" stroke="#FFFF00" stroke-width="0.5"/>
  <line x1="80" y1="40" x2="90" y2="50" stroke="#FFFF00" stroke-width="0.5"/>
  <line x1="90" y1="40" x2="100" y2="50" stroke="#FFFF00" stroke-width="0.5"/>
  
  <line x1="0" y1="50" x2="10" y2="60" stroke="#FFFF00" stroke-width="0.5"/>
  <line x1="10" y1="50" x2="20" y2="60" stroke="#FFFF00" stroke-width="0.5"/>
  <line x1="20" y1="50" x2="30" y2="60" stroke="#FFFF00" stroke-width="0.5"/>
  <line x1="30" y1="50" x2="40" y2="60" stroke="#FFFF00" stroke-width="0.5"/>
  <line x1="40" y1="50" x2="50" y2="60" stroke="#FFFF00" stroke-width="0.5"/>
  <line x1="50" y1="50" x2="60" y2="60" stroke="#FFFF00" stroke-width="0.5"/>
  <line x1="60" y1="50" x2="70" y2="60" stroke="#FFFF00" stroke-width="0.5"/>
  <line x1="70" y1="50" x2="80" y2="60" stroke="#FFFF00" stroke-width="0.5"/>
  <line x1="80" y1="50" x2="90" y2="60" stroke="#FFFF00" stroke-width="0.5"/>
  <line x1="90" y1="50" x2="100" y2="60" stroke="#FFFF00" stroke-width="0.5"/>
  
  <line x1="0" y1="60" x2="10" y2="70" stroke="#FFFF00" stroke-width="0.5"/>
  <line x1="10" y1="60" x2="20" y2="70" stroke="#FFFF00" stroke-width="0.5"/>
  <line x1="20" y1="60" x2="30" y2="70" stroke="#FFFF00" stroke-width="0.5"/>
  <line x1="30" y1="60" x2="40" y2="70" stroke="#FFFF00" stroke-width="0.5"/>
  <line x1="40" y1="60" x2="50" y2="70" stroke="#FFFF00" stroke-width="0.5"/>
  <line x1="50" y1="60" x2="60" y2="70" stroke="#FFFF00" stroke-width="0.5"/>
  <line x1="60" y1="60" x2="70" y2="70" stroke="#FFFF00" stroke-width="0.5"/>
  <line x1="70" y1="60" x2="80" y2="70" stroke="#FFFF00" stroke-width="0.5"/>
  <line x1="80" y1="60" x2="90" y2="70" stroke="#FFFF00" stroke-width="0.5"/>
  <line x1="90" y1="60" x2="100" y2="70" stroke="#FFFF00" stroke-width="0.5"/>
  
  <line x1="0" y1="70" x2="10" y2="80" stroke="#FFFF00" stroke-width="0.5"/>
  <line x1="10" y1="70" x2="20" y2="80" stroke="#FFFF00" stroke-width="0.5"/>
  <line x1="20" y1="70" x2="30" y2="80" stroke="#FFFF00" stroke-width="0.5"/>
  <line x1="30" y1="70" x2="40" y2="80" stroke="#FFFF00" stroke-width="0.5"/>
  <line x1="40" y1="70" x2="50" y2="80" stroke="#FFFF00" stroke-width="0.5"/>
  <line x1="50" y1="70" x2="60" y2="80" stroke="#FFFF00" stroke-width="0.5"/>
  <line x1="60" y1="70" x2="70" y2="80" stroke="#FFFF00" stroke-width="0.5"/>
  <line x1="70" y1="70" x2="80" y2="80" stroke="#FFFF00" stroke-width="0.5"/>
  <line x1="80" y1="70" x2="90" y2="80" stroke="#FFFF00" stroke-width="0.5"/>
  <line x1="90" y1="70" x2="100" y2="80" stroke="#FFFF00" stroke-width="0.5"/>
  
  <line x1="0" y1="80" x2="10" y2="90" stroke="#FFFF00" stroke-width="0.5"/>
  <line x1="10" y1="80" x2="20" y2="90" stroke="#FFFF00" stroke-width="0.5"/>
  <line x1="20" y1="80" x2="30" y2="90" stroke="#FFFF00" stroke-width="0.5"/>
  <line x1="30" y1="80" x2="40" y2="90" stroke="#FFFF00" stroke-width="0.5"/>
  <line x1="40" y1="80" x2="50" y2="90" stroke="#FFFF00" stroke-width="0.5"/>
  <line x1="50" y1="80" x2="60" y2="90" stroke="#FFFF00" stroke-width="0.5"/>
  <line x1="60" y1="80" x2="70" y2="90" stroke="#FFFF00" stroke-width="0.5"/>
  <line x1="70" y1="80" x2="80" y2="90" stroke="#FFFF00" stroke-width="0.5"/>
  <line x1="80" y1="80" x2="90" y2="90" stroke="#FFFF00" stroke-width="0.5"/>
  <line x1="90" y1="80" x2="100" y2="90" stroke="#FFFF00" stroke-width="0.5"/>
  
  <line x1="0" y1="90" x2="10" y2="100" stroke="#FFFF00" stroke-width="0.5"/>
  <line x1="10" y1="90" x2="20" y2="100" stroke="#FFFF00" stroke-width="0.5"/>
  <line x1="20" y1="90" x2="30" y2="100" stroke="#FFFF00" stroke-width="0.5"/>
  <line x1="30" y1="90" x2="40" y2="100" stroke="#FFFF00" stroke-width="0.5"/>
  <line x1="40" y1="90" x2="50" y2="100" stroke="#FFFF00" stroke-width="0.5"/>
  <line x1="50" y1="90" x2="60" y2="100" stroke="#FFFF00" stroke-width="0.5"/>
  <line x1="60" y1="90" x2="70" y2="100" stroke="#FFFF00" stroke-width="0.5"/>
  <line x1="70" y1="90" x2="80" y2="100" stroke="#FFFF00" stroke-width="0.5"/>
  <line x1="80" y1="90" x2="90" y2="100" stroke="#FFFF00" stroke-width="0.5"/>
  <line x1="90" y1="90" x2="100" y2="100" stroke="#FFFF00" stroke-width="0.5"/>
</svg>
